<svg id="Capa_1" enable-background="new 0 0 512 512" height="512" viewBox="0 0 512 512" width="512" xmlns="http://www.w3.org/2000/svg"><g><path d="m479 65v-20c0-24.81-20.19-45-45-45h-248.27l17.727 65z"/><path d="m79 215h82v66h-82z"/><path d="m154.634 0h-109.634c-24.81 0-45 20.19-45 45v20h172.361z"/><path d="m137 176c0-9.374-7.626-17-17-17s-17 7.626-17 17v9h34z"/><path d="m384 226c35.63 0 68.54 11.86 95 31.83v-162.83h-286.891c-.039 0-.079.004-.118.004-.032 0-.063-.004-.094-.004h-191.897v315c0 24.81 20.19 45 45 45h197.87c-10.79-21.36-16.87-45.48-16.87-71 0-87.12 70.88-158 158-158zm-128-97h160c8.284 0 15 6.716 15 15s-6.716 15-15 15h-160c-8.284 0-15-6.716-15-15s6.716-15 15-15zm0 64h32c8.284 0 15 6.716 15 15s-6.716 15-15 15h-32c-8.284 0-15-6.716-15-15s6.716-15 15-15zm-80 182h-112c-8.284 0-15-6.716-15-15s6.716-15 15-15h112c8.284 0 15 6.716 15 15s-6.716 15-15 15zm15-81c0 9.374-7.626 17-17 17h-108c-9.374 0-17-7.626-17-17v-92c0-9.374 7.626-17 17-17h7v-9c0-25.916 21.084-47 47-47s47 21.084 47 47v9h7c9.374 0 17 7.626 17 17z"/><path d="m384 256c-70.692 0-128 57.308-128 128s57.308 128 128 128 128-57.308 128-128-57.308-128-128-128zm43.73 158.43c-2.73 16.25-13.998 29.161-28.776 34.485-.475 7.856-6.979 14.085-14.954 14.085-7.383 0-13.507-5.339-14.754-12.365-7.006-1.192-13.375-3.776-21.446-9.055-6.93-4.54-8.88-13.83-4.34-20.77 4.53-6.93 13.83-8.87 20.76-4.34 7.31 4.79 9.68 5.15 19.68 5.09 9.65-.06 13.49-7.64 14.24-12.1.68-4.01-.08-9.34-7.51-11.97-12.46-4.4-25.23-9.45-34.28-16.55-9.62-7.55-14.05-20.5-11.54-33.79 2.578-13.662 11.827-24.655 24.337-29.14.976-7.341 7.245-13.01 14.853-13.01 8.139 0 14.749 6.487 14.978 14.571 3.263 1.203 6.384 2.616 9.261 4.115 8.644 4.503 10.646 15.989 4.043 23.157-4.659 5.058-12.208 6.277-18.172 2.853-4.676-2.684-10.208-4.874-14.52-3.576-3.99 1.2-5.07 5.35-5.3 6.59-.49 2.59.21 4.33.58 4.62 5.66 4.44 16.19 8.5 25.75 11.87 19.6 6.93 30.49 25.11 27.11 45.23z"/></g></svg>